<mxfile modified="2020-09-19T16:36:14.812Z" host="app.diagrams.net" agent="5.0 (Windows NT 10.0; Win64; x64) AppleWebKit/537.36 (KHTML, like Gecko) Chrome/85.0.4183.102 Safari/537.36" etag="CAi8Sn3IpnpBV7eUddRE" version="13.7.3" type="github">
  <diagram id="d1ab7348-05c3-a1e3-ca4d-12c340fd6b49" name="Page-1">
    <mxGraphModel dx="1422" dy="914" grid="1" gridSize="10" guides="1" tooltips="1" connect="1" arrows="1" fold="1" page="1" pageScale="1" pageWidth="1169" pageHeight="827" background="#ffffff" math="0" shadow="0">
      <root>
        <mxCell id="0" />
        <mxCell id="1" parent="0" />
        <mxCell id="2" value="&lt;b&gt;Google &lt;/b&gt;Cloud Platform" style="fillColor=#F6F6F6;strokeColor=none;shadow=0;gradientColor=none;fontSize=14;align=left;spacing=10;fontColor=#717171;9E9E9E;verticalAlign=top;spacingTop=-4;fontStyle=0;spacingLeft=40;html=1;" parent="1" vertex="1">
          <mxGeometry x="228.5" y="45" width="640" height="520" as="geometry" />
        </mxCell>
        <mxCell id="3" value="" style="shape=mxgraph.gcp2.google_cloud_platform;fillColor=#F6F6F6;strokeColor=none;shadow=0;gradientColor=none;" parent="2" vertex="1">
          <mxGeometry width="23" height="20" relative="1" as="geometry">
            <mxPoint x="20" y="10" as="offset" />
          </mxGeometry>
        </mxCell>
        <mxCell id="406" style="edgeStyle=orthogonalEdgeStyle;rounded=0;html=1;dashed=0;labelBackgroundColor=none;startArrow=none;startFill=0;startSize=4;endArrow=blockThin;endFill=1;endSize=4;strokeColor=#4284F3;strokeWidth=2;fontSize=12;" parent="1" source="371" target="384" edge="1">
          <mxGeometry relative="1" as="geometry">
            <Array as="points">
              <mxPoint x="648.5" y="550" />
              <mxPoint x="648.5" y="440" />
            </Array>
          </mxGeometry>
        </mxCell>
        <mxCell id="407" style="edgeStyle=orthogonalEdgeStyle;rounded=0;html=1;dashed=0;labelBackgroundColor=none;startArrow=none;startFill=0;startSize=4;endArrow=blockThin;endFill=1;endSize=4;strokeColor=#4284F3;strokeWidth=2;fontSize=12;" parent="1" source="371" target="380" edge="1">
          <mxGeometry relative="1" as="geometry">
            <Array as="points">
              <mxPoint x="648.5" y="550" />
              <mxPoint x="648.5" y="235" />
            </Array>
          </mxGeometry>
        </mxCell>
        <mxCell id="371" value="Streaming" style="rounded=1;absoluteArcSize=1;arcSize=2;html=1;strokeColor=#4284F3;gradientColor=none;shadow=0;dashed=1;fontSize=12;fontColor=#9E9E9E;align=left;verticalAlign=top;spacing=10;spacingTop=-4;fillColor=none;dashPattern=1 2;strokeWidth=2;" parent="1" vertex="1">
          <mxGeometry x="428.5" y="465" width="170" height="170" as="geometry" />
        </mxCell>
        <mxCell id="341" value="Streaming" style="rounded=1;absoluteArcSize=1;arcSize=2;html=1;strokeColor=#4284F3;gradientColor=none;shadow=0;dashed=1;fontSize=12;fontColor=#9E9E9E;align=left;verticalAlign=top;spacing=10;spacingTop=-4;fillColor=none;dashPattern=1 2;strokeWidth=2;" parent="1" vertex="1">
          <mxGeometry x="100.5" y="95" width="508" height="210" as="geometry" />
        </mxCell>
        <mxCell id="397" style="edgeStyle=orthogonalEdgeStyle;rounded=0;html=1;dashed=0;labelBackgroundColor=none;startArrow=none;startFill=0;startSize=4;endArrow=blockThin;endFill=1;endSize=4;strokeColor=#4284F3;strokeWidth=2;fontSize=12;" parent="1" source="340" target="361" edge="1">
          <mxGeometry relative="1" as="geometry">
            <Array as="points">
              <mxPoint x="234.5" y="255" />
              <mxPoint x="234.5" y="255" />
            </Array>
          </mxGeometry>
        </mxCell>
        <mxCell id="340" value="On-Premises&lt;br&gt;&lt;font style=&quot;font-size: 10px&quot;&gt;Applications&lt;/font&gt;&lt;br&gt;" style="rounded=1;absoluteArcSize=1;arcSize=2;html=1;strokeColor=none;gradientColor=none;shadow=0;dashed=0;fontSize=12;fontColor=#9E9E9E;align=left;verticalAlign=top;spacing=10;spacingTop=-4;fillColor=#EFEBE9;" parent="1" vertex="1">
          <mxGeometry x="110.5" y="165" width="110" height="130" as="geometry" />
        </mxCell>
        <mxCell id="338" value="" style="strokeColor=#dddddd;fillColor=#ffffff;shadow=1;strokeWidth=1;rounded=1;absoluteArcSize=1;arcSize=2;labelPosition=center;verticalLabelPosition=middle;align=center;verticalAlign=bottom;spacingLeft=0;fontColor=#999999;fontSize=12;whiteSpace=wrap;spacingBottom=2;html=1;" parent="1" vertex="1">
          <mxGeometry x="130.5" y="215" width="70" height="70" as="geometry" />
        </mxCell>
        <mxCell id="339" value="" style="dashed=0;connectable=0;html=1;fillColor=#757575;strokeColor=none;shape=mxgraph.gcp2.application;part=1;" parent="338" vertex="1">
          <mxGeometry x="0.5" width="50" height="40" relative="1" as="geometry">
            <mxPoint x="-25" y="15" as="offset" />
          </mxGeometry>
        </mxCell>
        <mxCell id="355" value="Batch" style="rounded=1;absoluteArcSize=1;arcSize=2;html=1;strokeColor=#4284F3;gradientColor=none;shadow=0;dashed=1;fontSize=12;fontColor=#9E9E9E;align=left;verticalAlign=top;spacing=10;spacingTop=-4;fillColor=none;dashPattern=1 2;strokeWidth=2;" parent="1" vertex="1">
          <mxGeometry x="100.5" y="375" width="308" height="210" as="geometry" />
        </mxCell>
        <mxCell id="401" style="edgeStyle=orthogonalEdgeStyle;rounded=0;html=1;dashed=0;labelBackgroundColor=none;startArrow=none;startFill=0;startSize=4;endArrow=blockThin;endFill=1;endSize=4;strokeColor=#4284F3;strokeWidth=2;fontSize=12;" parent="1" source="356" target="365" edge="1">
          <mxGeometry relative="1" as="geometry">
            <Array as="points">
              <mxPoint x="228.5" y="440" />
              <mxPoint x="228.5" y="440" />
            </Array>
          </mxGeometry>
        </mxCell>
        <mxCell id="356" value="On-Premises&lt;br&gt;&lt;font style=&quot;font-size: 10px&quot;&gt;Databases&lt;/font&gt;&lt;br&gt;" style="rounded=1;absoluteArcSize=1;arcSize=2;html=1;strokeColor=none;gradientColor=none;shadow=0;dashed=0;fontSize=12;fontColor=#9E9E9E;align=left;verticalAlign=top;spacing=10;spacingTop=-4;fillColor=#EFEBE9;" parent="1" vertex="1">
          <mxGeometry x="110.5" y="403.5" width="110" height="130" as="geometry" />
        </mxCell>
        <mxCell id="357" value="" style="strokeColor=#dddddd;fillColor=#ffffff;shadow=1;strokeWidth=1;rounded=1;absoluteArcSize=1;arcSize=2;labelPosition=center;verticalLabelPosition=middle;align=center;verticalAlign=bottom;spacingLeft=0;fontColor=#999999;fontSize=12;whiteSpace=wrap;spacingBottom=2;html=1;" parent="1" vertex="1">
          <mxGeometry x="130.5" y="452.5" width="70" height="69" as="geometry" />
        </mxCell>
        <mxCell id="358" value="" style="dashed=0;connectable=0;html=1;fillColor=#757575;strokeColor=none;shape=mxgraph.gcp2.database;part=1;" parent="357" vertex="1">
          <mxGeometry x="0.5" width="50" height="45" relative="1" as="geometry">
            <mxPoint x="-25" y="12.5" as="offset" />
          </mxGeometry>
        </mxCell>
        <mxCell id="398" style="edgeStyle=orthogonalEdgeStyle;rounded=0;html=1;dashed=0;labelBackgroundColor=none;startArrow=none;startFill=0;startSize=4;endArrow=blockThin;endFill=1;endSize=4;strokeColor=#4284F3;strokeWidth=2;fontSize=12;" parent="1" source="359" target="361" edge="1">
          <mxGeometry relative="1" as="geometry">
            <Array as="points">
              <mxPoint x="328.5" y="215" />
              <mxPoint x="328.5" y="215" />
            </Array>
          </mxGeometry>
        </mxCell>
        <mxCell id="359" value="" style="shape=mxgraph.gcp2.doubleRect;strokeColor=#dddddd;fillColor=#ffffff;shadow=1;strokeWidth=1;fontSize=12;fontColor=#9E9E9E;align=center;html=1;" parent="1" vertex="1">
          <mxGeometry x="248.5" y="121" width="160" height="68" as="geometry" />
        </mxCell>
        <mxCell id="360" value="&lt;font color=&quot;#000000&quot;&gt;Cloud Apps&lt;/font&gt;&lt;br&gt;Compute Engine" style="dashed=0;connectable=0;html=1;fillColor=#5184F3;strokeColor=none;shape=mxgraph.gcp2.hexIcon;prIcon=compute_engine;part=1;labelPosition=right;verticalLabelPosition=middle;align=left;verticalAlign=middle;spacingLeft=5;fontColor=#999999;fontSize=12;" parent="359" vertex="1">
          <mxGeometry y="0.5" width="44" height="39" relative="1" as="geometry">
            <mxPoint x="5" y="-19.5" as="offset" />
          </mxGeometry>
        </mxCell>
        <mxCell id="399" style="edgeStyle=orthogonalEdgeStyle;rounded=0;html=1;dashed=0;labelBackgroundColor=none;startArrow=none;startFill=0;startSize=4;endArrow=blockThin;endFill=1;endSize=4;strokeColor=#4284F3;strokeWidth=2;fontSize=12;" parent="1" source="361" target="363" edge="1">
          <mxGeometry relative="1" as="geometry" />
        </mxCell>
        <mxCell id="361" value="" style="strokeColor=#dddddd;fillColor=#ffffff;shadow=1;strokeWidth=1;rounded=1;absoluteArcSize=1;arcSize=2;fontSize=12;fontColor=#9E9E9E;align=center;html=1;" parent="1" vertex="1">
          <mxGeometry x="248.5" y="220" width="150" height="70" as="geometry" />
        </mxCell>
        <mxCell id="362" value="&lt;font color=&quot;#000000&quot;&gt;Streaming&lt;/font&gt;&lt;br&gt;Cloud Pub/Sub&lt;hr&gt;&lt;font style=&quot;font-size: 11px&quot;&gt;Transactions&lt;/font&gt;" style="dashed=0;connectable=0;html=1;fillColor=#5184F3;strokeColor=none;shape=mxgraph.gcp2.hexIcon;prIcon=cloud_pubsub;part=1;labelPosition=right;verticalLabelPosition=middle;align=left;verticalAlign=top;spacingLeft=5;fontColor=#999999;fontSize=12;spacingTop=-8;" parent="361" vertex="1">
          <mxGeometry width="44" height="39" relative="1" as="geometry">
            <mxPoint x="5" y="7" as="offset" />
          </mxGeometry>
        </mxCell>
        <mxCell id="400" style="edgeStyle=orthogonalEdgeStyle;rounded=0;html=1;exitX=0.5;exitY=1;dashed=0;labelBackgroundColor=none;startArrow=none;startFill=0;startSize=4;endArrow=blockThin;endFill=1;endSize=4;strokeColor=#4284F3;strokeWidth=2;fontSize=12;" parent="1" source="363" target="369" edge="1">
          <mxGeometry relative="1" as="geometry" />
        </mxCell>
        <mxCell id="405" style="edgeStyle=orthogonalEdgeStyle;rounded=0;html=1;dashed=0;labelBackgroundColor=none;startArrow=none;startFill=0;startSize=4;endArrow=blockThin;endFill=1;endSize=4;strokeColor=#4284F3;strokeWidth=2;fontSize=12;" parent="1" source="363" target="371" edge="1">
          <mxGeometry relative="1" as="geometry">
            <Array as="points">
              <mxPoint x="618.5" y="255" />
              <mxPoint x="618.5" y="435" />
              <mxPoint x="528.5" y="435" />
            </Array>
          </mxGeometry>
        </mxCell>
        <mxCell id="363" value="" style="strokeColor=#dddddd;fillColor=#ffffff;shadow=1;strokeWidth=1;rounded=1;absoluteArcSize=1;arcSize=2;fontSize=12;fontColor=#9E9E9E;align=center;html=1;" parent="1" vertex="1">
          <mxGeometry x="430.5" y="220" width="168" height="70" as="geometry" />
        </mxCell>
        <mxCell id="364" value="&lt;font color=&quot;#000000&quot;&gt;Processing&lt;/font&gt;&lt;br&gt;Cloud Dataflow&lt;hr&gt;&lt;font style=&quot;font-size: 11px&quot;&gt;Transaction Streams&lt;/font&gt;" style="dashed=0;connectable=0;html=1;fillColor=#5184F3;strokeColor=none;shape=mxgraph.gcp2.hexIcon;prIcon=cloud_dataflow;part=1;labelPosition=right;verticalLabelPosition=middle;align=left;verticalAlign=top;spacingLeft=5;fontColor=#999999;fontSize=12;spacingTop=-8;" parent="363" vertex="1">
          <mxGeometry width="44" height="39" relative="1" as="geometry">
            <mxPoint x="5" y="7" as="offset" />
          </mxGeometry>
        </mxCell>
        <mxCell id="403" style="edgeStyle=orthogonalEdgeStyle;rounded=0;html=1;dashed=0;labelBackgroundColor=none;startArrow=none;startFill=0;startSize=4;endArrow=blockThin;endFill=1;endSize=4;strokeColor=#4284F3;strokeWidth=2;fontSize=12;" parent="1" source="365" target="371" edge="1">
          <mxGeometry relative="1" as="geometry">
            <Array as="points">
              <mxPoint x="498.5" y="435" />
            </Array>
          </mxGeometry>
        </mxCell>
        <mxCell id="404" style="edgeStyle=orthogonalEdgeStyle;rounded=0;html=1;dashed=0;labelBackgroundColor=none;startArrow=none;startFill=0;startSize=4;endArrow=blockThin;endFill=1;endSize=4;strokeColor=#4284F3;strokeWidth=2;fontSize=12;" parent="1" source="365" target="369" edge="1">
          <mxGeometry relative="1" as="geometry">
            <Array as="points">
              <mxPoint x="498.5" y="435" />
            </Array>
          </mxGeometry>
        </mxCell>
        <mxCell id="365" value="" style="strokeColor=#dddddd;fillColor=#ffffff;shadow=1;strokeWidth=1;rounded=1;absoluteArcSize=1;arcSize=2;fontSize=12;fontColor=#9E9E9E;align=center;html=1;" parent="1" vertex="1">
          <mxGeometry x="248.5" y="405" width="150" height="70" as="geometry" />
        </mxCell>
        <mxCell id="366" value="&lt;font color=&quot;#000000&quot;&gt;ETL&lt;/font&gt;&lt;br&gt;Cloud Dataflow&lt;hr&gt;&lt;font style=&quot;font-size: 11px&quot;&gt;Transform Data&lt;/font&gt;" style="dashed=0;connectable=0;html=1;fillColor=#5184F3;strokeColor=none;shape=mxgraph.gcp2.hexIcon;prIcon=cloud_dataflow;part=1;labelPosition=right;verticalLabelPosition=middle;align=left;verticalAlign=top;spacingLeft=5;fontColor=#999999;fontSize=12;spacingTop=-8;" parent="365" vertex="1">
          <mxGeometry width="44" height="39" relative="1" as="geometry">
            <mxPoint x="5" y="7" as="offset" />
          </mxGeometry>
        </mxCell>
        <mxCell id="402" style="edgeStyle=orthogonalEdgeStyle;rounded=0;html=1;exitX=0.5;exitY=0;dashed=0;labelBackgroundColor=none;startArrow=none;startFill=0;startSize=4;endArrow=blockThin;endFill=1;endSize=4;strokeColor=#4284F3;strokeWidth=2;fontSize=12;" parent="1" source="367" target="365" edge="1">
          <mxGeometry relative="1" as="geometry" />
        </mxCell>
        <mxCell id="367" value="" style="strokeColor=#dddddd;fillColor=#ffffff;shadow=1;strokeWidth=1;rounded=1;absoluteArcSize=1;arcSize=2;fontSize=12;fontColor=#9E9E9E;align=center;html=1;" parent="1" vertex="1">
          <mxGeometry x="248.5" y="515" width="150" height="60" as="geometry" />
        </mxCell>
        <mxCell id="368" value="&lt;font color=&quot;#000000&quot;&gt;Cloud Data&lt;/font&gt;&lt;br&gt;Cloud Storage" style="dashed=0;connectable=0;html=1;fillColor=#5184F3;strokeColor=none;shape=mxgraph.gcp2.hexIcon;prIcon=cloud_storage;part=1;labelPosition=right;verticalLabelPosition=middle;align=left;verticalAlign=middle;spacingLeft=5;fontColor=#999999;fontSize=12;" parent="367" vertex="1">
          <mxGeometry y="0.5" width="44" height="39" relative="1" as="geometry">
            <mxPoint x="5" y="-19.5" as="offset" />
          </mxGeometry>
        </mxCell>
        <mxCell id="369" value="" style="strokeColor=#dddddd;fillColor=#ffffff;shadow=1;strokeWidth=1;rounded=1;absoluteArcSize=1;arcSize=2;fontSize=12;fontColor=#9E9E9E;align=center;html=1;" parent="1" vertex="1">
          <mxGeometry x="433" y="335" width="163" height="70" as="geometry" />
        </mxCell>
        <mxCell id="370" value="&lt;font color=&quot;#000000&quot;&gt;Processed Events&lt;/font&gt;&lt;br&gt;Cloud Bigtable&lt;hr&gt;&lt;font style=&quot;font-size: 11px&quot;&gt;Events Time Series&lt;/font&gt;" style="dashed=0;connectable=0;html=1;fillColor=#5184F3;strokeColor=none;shape=mxgraph.gcp2.hexIcon;prIcon=cloud_bigtable;part=1;labelPosition=right;verticalLabelPosition=middle;align=left;verticalAlign=top;spacingLeft=5;fontColor=#999999;fontSize=12;spacingTop=-8;" parent="369" vertex="1">
          <mxGeometry width="44" height="39" relative="1" as="geometry">
            <mxPoint x="5" y="7" as="offset" />
          </mxGeometry>
        </mxCell>
        <mxCell id="372" value="" style="strokeColor=#dddddd;fillColor=#ffffff;shadow=1;strokeWidth=1;rounded=1;absoluteArcSize=1;arcSize=2;fontSize=12;fontColor=#9E9E9E;align=center;html=1;" parent="1" vertex="1">
          <mxGeometry x="439.5" y="495" width="150" height="60" as="geometry" />
        </mxCell>
        <mxCell id="373" value="&lt;font color=&quot;#000000&quot;&gt;Rules Engine&lt;/font&gt;&lt;br&gt;Cloud Dataflow" style="dashed=0;connectable=0;html=1;fillColor=#5184F3;strokeColor=none;shape=mxgraph.gcp2.hexIcon;prIcon=cloud_dataflow;part=1;labelPosition=right;verticalLabelPosition=middle;align=left;verticalAlign=middle;spacingLeft=5;fontColor=#999999;fontSize=12;" parent="372" vertex="1">
          <mxGeometry y="0.5" width="44" height="39" relative="1" as="geometry">
            <mxPoint x="5" y="-19.5" as="offset" />
          </mxGeometry>
        </mxCell>
        <mxCell id="374" value="" style="strokeColor=#dddddd;fillColor=#ffffff;shadow=1;strokeWidth=1;rounded=1;absoluteArcSize=1;arcSize=2;fontSize=12;fontColor=#9E9E9E;align=center;html=1;" parent="1" vertex="1">
          <mxGeometry x="439.5" y="565" width="150" height="60" as="geometry" />
        </mxCell>
        <mxCell id="375" value="&lt;font color=&quot;#000000&quot;&gt;Rules Engine&lt;/font&gt;&lt;br&gt;Cloud Dataproc" style="dashed=0;connectable=0;html=1;fillColor=#5184F3;strokeColor=none;shape=mxgraph.gcp2.hexIcon;prIcon=cloud_dataproc;part=1;labelPosition=right;verticalLabelPosition=middle;align=left;verticalAlign=middle;spacingLeft=5;fontColor=#999999;fontSize=12;" parent="374" vertex="1">
          <mxGeometry y="0.5" width="44" height="39" relative="1" as="geometry">
            <mxPoint x="5" y="-19.5" as="offset" />
          </mxGeometry>
        </mxCell>
        <mxCell id="408" style="edgeStyle=orthogonalEdgeStyle;rounded=0;html=1;dashed=0;labelBackgroundColor=none;startArrow=none;startFill=0;startSize=4;endArrow=blockThin;endFill=1;endSize=4;strokeColor=#4284F3;strokeWidth=2;fontSize=12;" parent="1" source="376" target="388" edge="1">
          <mxGeometry relative="1" as="geometry">
            <Array as="points">
              <mxPoint x="888.5" y="145" />
              <mxPoint x="888.5" y="145" />
            </Array>
          </mxGeometry>
        </mxCell>
        <mxCell id="376" value="" style="strokeColor=#dddddd;fillColor=#ffffff;shadow=1;strokeWidth=1;rounded=1;absoluteArcSize=1;arcSize=2;fontSize=12;fontColor=#9E9E9E;align=center;html=1;" parent="1" vertex="1">
          <mxGeometry x="680.5" y="115" width="158" height="60" as="geometry" />
        </mxCell>
        <mxCell id="377" value="&lt;font color=&quot;#000000&quot;&gt;Push to Devices&lt;/font&gt;&lt;br&gt;App Engine" style="dashed=0;connectable=0;html=1;fillColor=#5184F3;strokeColor=none;shape=mxgraph.gcp2.hexIcon;prIcon=app_engine;part=1;labelPosition=right;verticalLabelPosition=middle;align=left;verticalAlign=middle;spacingLeft=5;fontColor=#999999;fontSize=12;" parent="376" vertex="1">
          <mxGeometry y="0.5" width="44" height="39" relative="1" as="geometry">
            <mxPoint x="5" y="-19.5" as="offset" />
          </mxGeometry>
        </mxCell>
        <mxCell id="409" style="edgeStyle=orthogonalEdgeStyle;rounded=0;html=1;dashed=0;labelBackgroundColor=none;startArrow=none;startFill=0;startSize=4;endArrow=blockThin;endFill=1;endSize=4;strokeColor=#4284F3;strokeWidth=2;fontSize=12;" parent="1" source="380" target="376" edge="1">
          <mxGeometry relative="1" as="geometry" />
        </mxCell>
        <mxCell id="410" style="edgeStyle=orthogonalEdgeStyle;rounded=0;html=1;dashed=0;labelBackgroundColor=none;startArrow=none;startFill=0;startSize=4;endArrow=blockThin;endFill=1;endSize=4;strokeColor=#4284F3;strokeWidth=2;fontSize=12;" parent="1" source="380" edge="1">
          <mxGeometry relative="1" as="geometry">
            <Array as="points">
              <mxPoint x="759.5" y="295" />
              <mxPoint x="759.5" y="295" />
            </Array>
            <mxPoint x="759.5" y="301" as="targetPoint" />
          </mxGeometry>
        </mxCell>
        <mxCell id="380" value="" style="strokeColor=#dddddd;fillColor=#ffffff;shadow=1;strokeWidth=1;rounded=1;absoluteArcSize=1;arcSize=2;fontSize=12;fontColor=#9E9E9E;align=center;html=1;" parent="1" vertex="1">
          <mxGeometry x="680.5" y="200" width="158" height="70" as="geometry" />
        </mxCell>
        <mxCell id="381" value="&lt;font color=&quot;#000000&quot;&gt;Messaging&lt;/font&gt;&lt;br&gt;Cloud Pub/Sub&lt;hr&gt;&lt;font style=&quot;font-size: 11px&quot;&gt;Rules Actions&lt;/font&gt;" style="dashed=0;connectable=0;html=1;fillColor=#5184F3;strokeColor=none;shape=mxgraph.gcp2.hexIcon;prIcon=cloud_pubsub;part=1;labelPosition=right;verticalLabelPosition=middle;align=left;verticalAlign=top;spacingLeft=5;fontColor=#999999;fontSize=12;spacingTop=-8;" parent="380" vertex="1">
          <mxGeometry width="44" height="39" relative="1" as="geometry">
            <mxPoint x="5" y="7" as="offset" />
          </mxGeometry>
        </mxCell>
        <mxCell id="411" style="edgeStyle=orthogonalEdgeStyle;rounded=0;html=1;dashed=0;labelBackgroundColor=none;startArrow=none;startFill=0;startSize=4;endArrow=blockThin;endFill=1;endSize=4;strokeColor=#4284F3;strokeWidth=2;fontSize=12;" parent="1" source="384" target="391" edge="1">
          <mxGeometry relative="1" as="geometry" />
        </mxCell>
        <mxCell id="412" style="edgeStyle=orthogonalEdgeStyle;rounded=0;html=1;dashed=0;labelBackgroundColor=none;startArrow=none;startFill=0;startSize=4;endArrow=blockThin;endFill=1;endSize=4;strokeColor=#4284F3;strokeWidth=2;fontSize=12;" parent="1" source="384" target="386" edge="1">
          <mxGeometry relative="1" as="geometry">
            <Array as="points">
              <mxPoint x="759.5" y="505" />
              <mxPoint x="759.5" y="505" />
            </Array>
          </mxGeometry>
        </mxCell>
        <mxCell id="384" value="" style="strokeColor=#dddddd;fillColor=#ffffff;shadow=1;strokeWidth=1;rounded=1;absoluteArcSize=1;arcSize=2;fontSize=12;fontColor=#9E9E9E;align=center;html=1;" parent="1" vertex="1">
          <mxGeometry x="680.5" y="405" width="157" height="70" as="geometry" />
        </mxCell>
        <mxCell id="385" value="&lt;font color=&quot;#000000&quot;&gt;Data Warehouse&lt;/font&gt;&lt;br&gt;BigQuery&lt;hr&gt;&lt;font style=&quot;font-size: 11px&quot;&gt;Execution Results&lt;/font&gt;" style="dashed=0;connectable=0;html=1;fillColor=#5184F3;strokeColor=none;shape=mxgraph.gcp2.hexIcon;prIcon=bigquery;part=1;labelPosition=right;verticalLabelPosition=middle;align=left;verticalAlign=top;spacingLeft=5;fontColor=#999999;fontSize=12;spacingTop=-8;" parent="384" vertex="1">
          <mxGeometry width="44" height="39" relative="1" as="geometry">
            <mxPoint x="5" y="7" as="offset" />
          </mxGeometry>
        </mxCell>
        <mxCell id="386" value="" style="strokeColor=#dddddd;fillColor=#ffffff;shadow=1;strokeWidth=1;rounded=1;absoluteArcSize=1;arcSize=2;fontSize=12;fontColor=#9E9E9E;align=center;html=1;" parent="1" vertex="1">
          <mxGeometry x="680.5" y="515" width="158" height="60" as="geometry" />
        </mxCell>
        <mxCell id="387" value="&lt;font color=&quot;#000000&quot;&gt;Data Analysis&lt;/font&gt;&lt;br&gt;Cloud Datalab" style="dashed=0;connectable=0;html=1;fillColor=#5184F3;strokeColor=none;shape=mxgraph.gcp2.hexIcon;prIcon=cloud_datalab;part=1;labelPosition=right;verticalLabelPosition=middle;align=left;verticalAlign=middle;spacingLeft=5;fontColor=#999999;fontSize=12;" parent="386" vertex="1">
          <mxGeometry y="0.5" width="44" height="39" relative="1" as="geometry">
            <mxPoint x="5" y="-19.5" as="offset" />
          </mxGeometry>
        </mxCell>
        <mxCell id="388" value="Mobile Devices&lt;br&gt;&lt;font style=&quot;font-size: 10px&quot;&gt;Push Notification&lt;/font&gt;&lt;br&gt;" style="rounded=1;absoluteArcSize=1;arcSize=2;html=1;strokeColor=none;gradientColor=none;shadow=0;dashed=0;fontSize=12;fontColor=#9E9E9E;align=left;verticalAlign=top;spacing=10;spacingTop=-4;fillColor=#F1F8E9;" parent="1" vertex="1">
          <mxGeometry x="898.5" y="95" width="110" height="130" as="geometry" />
        </mxCell>
        <mxCell id="389" value="" style="strokeColor=#dddddd;fillColor=#ffffff;shadow=1;strokeWidth=1;rounded=1;absoluteArcSize=1;arcSize=2;labelPosition=center;verticalLabelPosition=middle;align=center;verticalAlign=bottom;spacingLeft=0;fontColor=#999999;fontSize=12;whiteSpace=wrap;spacingBottom=2;html=1;" parent="1" vertex="1">
          <mxGeometry x="918.5" y="140" width="70" height="70" as="geometry" />
        </mxCell>
        <mxCell id="390" value="" style="dashed=0;connectable=0;html=1;fillColor=#757575;strokeColor=none;shape=mxgraph.gcp2.mobile_devices;part=1;" parent="389" vertex="1">
          <mxGeometry x="0.5" width="50" height="36.5" relative="1" as="geometry">
            <mxPoint x="-25" y="16.75" as="offset" />
          </mxGeometry>
        </mxCell>
        <mxCell id="391" value="Report &amp;amp; Share&lt;br&gt;&lt;font style=&quot;font-size: 10px&quot;&gt;Business Analysis&lt;/font&gt;&lt;br&gt;" style="rounded=1;absoluteArcSize=1;arcSize=2;html=1;strokeColor=none;gradientColor=none;shadow=0;dashed=0;fontSize=12;fontColor=#9E9E9E;align=left;verticalAlign=top;spacing=10;spacingTop=-4;fillColor=#F3E5F5;" parent="1" vertex="1">
          <mxGeometry x="898.5" y="376" width="170" height="128" as="geometry" />
        </mxCell>
        <mxCell id="392" value="" style="strokeColor=#dddddd;fillColor=#ffffff;shadow=1;strokeWidth=1;rounded=1;absoluteArcSize=1;arcSize=2;labelPosition=center;verticalLabelPosition=middle;align=center;verticalAlign=bottom;spacingLeft=0;fontColor=#999999;fontSize=12;whiteSpace=wrap;spacingBottom=2;html=1;" parent="1" vertex="1">
          <mxGeometry x="908.5" y="423" width="70" height="70" as="geometry" />
        </mxCell>
        <mxCell id="393" value="" style="dashed=0;connectable=0;html=1;fillColor=#757575;strokeColor=none;shape=mxgraph.gcp2.report;part=1;" parent="392" vertex="1">
          <mxGeometry x="0.5" width="50" height="50" relative="1" as="geometry">
            <mxPoint x="-25" y="10" as="offset" />
          </mxGeometry>
        </mxCell>
        <mxCell id="394" value="" style="strokeColor=#dddddd;fillColor=#ffffff;shadow=1;strokeWidth=1;rounded=1;absoluteArcSize=1;arcSize=2;labelPosition=center;verticalLabelPosition=middle;align=center;verticalAlign=bottom;spacingLeft=0;fontColor=#999999;fontSize=12;whiteSpace=wrap;spacingBottom=2;html=1;" parent="1" vertex="1">
          <mxGeometry x="988.5" y="423" width="70" height="70" as="geometry" />
        </mxCell>
        <mxCell id="395" value="" style="dashed=0;connectable=0;html=1;fillColor=#757575;strokeColor=none;shape=mxgraph.gcp2.users;part=1;" parent="394" vertex="1">
          <mxGeometry x="0.5" width="50" height="31.5" relative="1" as="geometry">
            <mxPoint x="-25" y="19.25" as="offset" />
          </mxGeometry>
        </mxCell>
        <mxCell id="9NjgWLflUYVtjoxsmrfz-429" value="" style="strokeColor=#dddddd;shadow=1;strokeWidth=1;rounded=1;absoluteArcSize=1;arcSize=2;" vertex="1" parent="1">
          <mxGeometry x="128.5" y="660" width="100" height="44" as="geometry" />
        </mxCell>
        <mxCell id="9NjgWLflUYVtjoxsmrfz-430" value="Gateway" style="dashed=0;connectable=0;html=1;fillColor=#757575;strokeColor=none;shape=mxgraph.gcp2.gateway;part=1;labelPosition=right;verticalLabelPosition=middle;align=left;verticalAlign=middle;spacingLeft=5;fontSize=12;" vertex="1" parent="9NjgWLflUYVtjoxsmrfz-429">
          <mxGeometry y="0.5" width="32" height="32" relative="1" as="geometry">
            <mxPoint x="5" y="-16" as="offset" />
          </mxGeometry>
        </mxCell>
        <mxCell id="9NjgWLflUYVtjoxsmrfz-431" value="" style="strokeColor=#dddddd;shadow=1;strokeWidth=1;rounded=1;absoluteArcSize=1;arcSize=2;" vertex="1" parent="1">
          <mxGeometry x="260" y="680" width="100" height="44" as="geometry" />
        </mxCell>
        <mxCell id="9NjgWLflUYVtjoxsmrfz-432" value="Logs API" style="dashed=0;connectable=0;html=1;fillColor=#757575;strokeColor=none;shape=mxgraph.gcp2.logs_api;part=1;labelPosition=right;verticalLabelPosition=middle;align=left;verticalAlign=middle;spacingLeft=5;fontSize=12;" vertex="1" parent="9NjgWLflUYVtjoxsmrfz-431">
          <mxGeometry y="0.5" width="32" height="32" relative="1" as="geometry">
            <mxPoint x="5" y="-16" as="offset" />
          </mxGeometry>
        </mxCell>
        <mxCell id="9NjgWLflUYVtjoxsmrfz-435" value="" style="strokeColor=#dddddd;shadow=1;strokeWidth=1;rounded=1;absoluteArcSize=1;arcSize=2;align=left;fontFamily=Roboto;fontSource=https%3A%2F%2Ffonts.googleapis.com%2Fcss%3Ffamily%3DRoboto;" vertex="1" parent="1">
          <mxGeometry x="460" y="680" width="170" height="59.1" as="geometry" />
        </mxCell>
        <mxCell id="9NjgWLflUYVtjoxsmrfz-444" value="" style="group" vertex="1" connectable="0" parent="1">
          <mxGeometry x="469.5" y="696.9" width="165" height="36.19999999999993" as="geometry" />
        </mxCell>
        <mxCell id="9NjgWLflUYVtjoxsmrfz-440" value="" style="shape=image;verticalLabelPosition=bottom;labelBackgroundColor=#ffffff;verticalAlign=top;aspect=fixed;imageAspect=0;image=data:image/svg+xml,PHN2ZyB4bWxuczpkYz0iaHR0cDovL3B1cmwub3JnL2RjL2VsZW1lbnRzLzEuMS8iIHhtbG5zOmNjPSJodHRwOi8vY3JlYXRpdmVjb21tb25zLm9yZy9ucyMiIHhtbG5zOnJkZj0iaHR0cDovL3d3dy53My5vcmcvMTk5OS8wMi8yMi1yZGYtc3ludGF4LW5zIyIgeG1sbnM6c3ZnPSJodHRwOi8vd3d3LnczLm9yZy8yMDAwL3N2ZyIgeG1sbnM9Imh0dHA6Ly93d3cudzMub3JnLzIwMDAvc3ZnIiB4bWxuczpzb2RpcG9kaT0iaHR0cDovL3NvZGlwb2RpLnNvdXJjZWZvcmdlLm5ldC9EVEQvc29kaXBvZGktMC5kdGQiIHhtbG5zOmlua3NjYXBlPSJodHRwOi8vd3d3Lmlua3NjYXBlLm9yZy9uYW1lc3BhY2VzL2lua3NjYXBlIiBzb2RpcG9kaTpkb2NuYW1lPSJnY3BfYWlyZmxvdy5zdmciIGlua3NjYXBlOnZlcnNpb249IjEuMCAoNDAzNWE0ZmI0OSwgMjAyMC0wNS0wMSkiIGlkPSJzdmc2MiIgdmVyc2lvbj0iMS4xIiB2aWV3Qm94PSIwIDAgOTguMDU5MDAyIDg3LjMwOTk5OCIgaGVpZ2h0PSI4Ny4zMDk5OThtbSIgd2lkdGg9Ijk4LjA1ODk5OG1tIj4mI3hhOyAgPGRlZnMgaWQ9ImRlZnM1NiI+JiN4YTsgICAgPGlua3NjYXBlOnBhdGgtZWZmZWN0IGhpZGVfa25vdHM9ImZhbHNlIiBvbmx5X3NlbGVjdGVkPSJmYWxzZSIgYXBwbHlfd2l0aF9yYWRpdXM9InRydWUiIGFwcGx5X25vX3JhZGl1cz0idHJ1ZSIgdXNlX2tub3RfZGlzdGFuY2U9InRydWUiIGZsZXhpYmxlPSJmYWxzZSIgY2hhbWZlcl9zdGVwcz0iMSIgcmFkaXVzPSIwIiBtb2RlPSJGIiBtZXRob2Q9ImF1dG8iIHVuaXQ9InB4IiBzYXRlbGxpdGVzX3BhcmFtPSJGLDAsMCwxLDAsMCwwLDEgQCBGLDAsMCwxLDAsMCwwLDEgQCBGLDAsMCwxLDAsMCwwLDEgQCBGLDAsMCwxLDAsMCwwLDEgQCBGLDAsMCwxLDAsMCwwLDEgQCBGLDAsMCwxLDAsMCwwLDEiIGxwZXZlcnNpb249IjEiIGlzX3Zpc2libGU9InRydWUiIGlkPSJwYXRoLWVmZmVjdDEwODgiIGVmZmVjdD0iZmlsbGV0X2NoYW1mZXIiLz4mI3hhOyAgICA8aW5rc2NhcGU6cGF0aC1lZmZlY3QgaGlkZV9rbm90cz0iZmFsc2UiIG9ubHlfc2VsZWN0ZWQ9ImZhbHNlIiBhcHBseV93aXRoX3JhZGl1cz0idHJ1ZSIgYXBwbHlfbm9fcmFkaXVzPSJ0cnVlIiB1c2Vfa25vdF9kaXN0YW5jZT0idHJ1ZSIgZmxleGlibGU9ImZhbHNlIiBjaGFtZmVyX3N0ZXBzPSIxIiByYWRpdXM9IjAiIG1vZGU9IkYiIG1ldGhvZD0iYXV0byIgdW5pdD0icHgiIHNhdGVsbGl0ZXNfcGFyYW09IkYsMCwwLDEsMCwwLDAsMSBAIEYsMCwwLDEsMCwzLjkxMTYzODEsMCwxIEAgRiwwLDAsMSwwLDAsMCwxIEAgRiwwLDAsMSwwLDEuMDgyOTc5NSwwLDEgQCBGLDAsMCwxLDAsMCwwLDEgQCBGLDAsMCwxLDAsMCwwLDEgQCBGLDAsMCwxLDAsMy4yMzUwNTk1LDAsMSBAIEYsMCwwLDEsMCwwLDAsMSBAIEYsMCwwLDEsMCwzLjIwOTAxMjgsMCwxIEAgRiwwLDAsMSwwLDAsMCwxIEAgRiwwLDAsMSwwLDMuNDg3ODExNywwLDEgQCBGLDAsMCwxLDAsMCwwLDEgQCBGLDAsMCwxLDAsMy43MTUxNzIsMCwxIEAgRiwwLDAsMSwwLDAsMCwxIEAgRiwwLDAsMSwwLDAsMCwxIiBscGV2ZXJzaW9uPSIxIiBpc192aXNpYmxlPSJ0cnVlIiBpZD0icGF0aC1lZmZlY3QxMDY4IiBlZmZlY3Q9ImZpbGxldF9jaGFtZmVyIi8+JiN4YTsgIDwvZGVmcz4mI3hhOyAgPHNvZGlwb2RpOm5hbWVkdmlldyBpbmtzY2FwZTp3aW5kb3ctbWF4aW1pemVkPSIwIiBpbmtzY2FwZTp3aW5kb3cteT0iNjUiIGlua3NjYXBlOndpbmRvdy14PSI1MyIgaW5rc2NhcGU6d2luZG93LWhlaWdodD0iOTY3IiBpbmtzY2FwZTp3aW5kb3ctd2lkdGg9IjE4MjkiIGlua3NjYXBlOnNuYXAtZ2xvYmFsPSJ0cnVlIiBzaG93Z3JpZD0iZmFsc2UiIGlua3NjYXBlOmRvY3VtZW50LXJvdGF0aW9uPSIwIiBpbmtzY2FwZTpjdXJyZW50LWxheWVyPSJsYXllcjEiIGlua3NjYXBlOmRvY3VtZW50LXVuaXRzPSJtbSIgaW5rc2NhcGU6Y3k9IjE3NS45NDg4MyIgaW5rc2NhcGU6Y3g9IjE2NS4wOTA4NiIgaW5rc2NhcGU6em9vbT0iMS42MTYwMjU3IiBpbmtzY2FwZTpwYWdlc2hhZG93PSIyIiBpbmtzY2FwZTpwYWdlb3BhY2l0eT0iMC4wIiBib3JkZXJvcGFjaXR5PSIxLjAiIGJvcmRlcmNvbG9yPSIjNjY2NjY2IiBwYWdlY29sb3I9IiNmZmZmZmYiIGlkPSJiYXNlIi8+JiN4YTsgIDxtZXRhZGF0YSBpZD0ibWV0YWRhdGE1OSI+JiN4YTsgICAgPHJkZjpSREY+JiN4YTsgICAgICA8Y2M6V29yayByZGY6YWJvdXQ9IiI+JiN4YTsgICAgICAgIDxkYzpmb3JtYXQ+aW1hZ2Uvc3ZnK3htbDwvZGM6Zm9ybWF0PiYjeGE7ICAgICAgICA8ZGM6dHlwZSByZGY6cmVzb3VyY2U9Imh0dHA6Ly9wdXJsLm9yZy9kYy9kY21pdHlwZS9TdGlsbEltYWdlIi8+JiN4YTsgICAgICAgIDxkYzp0aXRsZS8+JiN4YTsgICAgICA8L2NjOldvcms+JiN4YTsgICAgPC9yZGY6UkRGPiYjeGE7ICA8L21ldGFkYXRhPiYjeGE7ICA8ZyBzdHlsZT0iZGlzcGxheTppbmxpbmUiIGlkPSJsYXllcjEiIGlua3NjYXBlOmdyb3VwbW9kZT0ibGF5ZXIiIGlua3NjYXBlOmxhYmVsPSJMYXllciAxIj4mI3hhOyAgICA8cGF0aCBkPSJtIDY5LjA4Nzc0Niw3OC4zOTY4ODkgLTQwLjExNjIyMywtMmUtNiBMIDguOTEzNDE0LDQzLjY1NTIxOCAyOC45NzE1MjcsOC45MTM1NTE0IGwgNDAuMTE2MjIyLDEuOWUtNiAyMC4wNTgxMSwzNC43NDE2Njg3IHoiIGlua3NjYXBlOnJhbmRvbWl6ZWQ9IjAiIGlua3NjYXBlOnJvdW5kZWQ9IjAiIGlua3NjYXBlOmZsYXRzaWRlZD0idHJ1ZSIgc29kaXBvZGk6YXJnMj0iMS41NzA3OTYzIiBzb2RpcG9kaTphcmcxPSIxLjA0NzE5NzYiIHNvZGlwb2RpOnIyPSIzNC43NDE2NzMiIHNvZGlwb2RpOnIxPSI0MC4xMTYyMjIiIHNvZGlwb2RpOmN5PSI0My42NTUyMiIgc29kaXBvZGk6Y3g9IjQ5LjAyOTYzNiIgc29kaXBvZGk6c2lkZXM9IjYiIGlkPSJwYXRoMTA4NiIgc3R5bGU9Im9wYWNpdHk6MTtmaWxsOiMwMzhlY2Q7c3Ryb2tlOiMwMzhlY2Q7c3Ryb2tlLXdpZHRoOjE3LjgyNztzdHJva2UtbGluZWpvaW46cm91bmQ7c3Ryb2tlLW1pdGVybGltaXQ6NDtzdHJva2UtZGFzaGFycmF5Om5vbmU7c3Ryb2tlLW9wYWNpdHk6MTtmaWxsLW9wYWNpdHk6MSIgc29kaXBvZGk6dHlwZT0ic3RhciIvPiYjeGE7ICAgIDxnIHN0eWxlPSJmaWxsOiNmZmZmZmY7c3Ryb2tlLXdpZHRoOjEuMDA0MDM7c3Ryb2tlLW1pdGVybGltaXQ6NDtzdHJva2UtZGFzaGFycmF5Om5vbmUiIHRyYW5zZm9ybT0ibWF0cml4KDAuMDkyNTAwMTQsMCwwLDAuMDkyNTAwMTQsMjUuMjc4OTgyLDIwLjM2MTkxMSkiIGlkPSJnMTM5NiI+JiN4YTsgICAgICA8cGF0aCBzdHlsZT0iZmlsbDojZmZmZmZmO3N0cm9rZS13aWR0aDoxLjAwNDAzO3N0cm9rZS1taXRlcmxpbWl0OjQ7c3Ryb2tlLWRhc2hhcnJheTpub25lIiBpbmtzY2FwZTpjb25uZWN0b3ItY3VydmF0dXJlPSIwIiBkPSJtIDI1Ni43LDIyOC42IGMgLTE0LjcsMCAtMjYuOSwxMiAtMjYuOSwyNi44IDAsMTQuNyAxMi4yLDI2LjkgMjYuOSwyNi45IDM1LjgsLTAuMSAzNS44LC01My43IDAsLTUzLjcgeiBtIDAsMTcgYyA1LjUsMCA5LjcsNC4yIDkuNyw5LjcgMCw1LjUgLTQuMiw5LjcgLTkuNyw5LjcgLTUuNSwwIC05LjcsLTQuMiAtOS43LC05LjcgLTAuMSwtNS41IDQuMSwtOS43IDkuNywtOS43IHogTSAxMy44LDAgQyAxMi4zLDAgMTEuNiwwLjMgNi40LDAuOCAxLjEsMS41IC0wLjYsNy43IDAuNiwxNC4zIDEuOCwyMSAyLjEsMTguNyA0LjgsMjIuNiA3LjUsMjYuNCA5NSwxMTAuOSAxNDAuMywxNTUuMiBMIDYwLDIzNy41IGMgLTI2LjcsMjcuMyAtNDAuOCw2OS40IC00OSwxMTUuOSAtOC4zLDQ2LjUgLTEwLjQsOTggLTExLDE0NC44IDAuMSw2LjcgNS4xLDEyLjQgMTEuOCwxMy4yIGggMi41IGMgMy4xLC0wLjMgNiwtMS43IDguMiwtMy45IGggMC4xIEwgMTU1LjEsMzcxLjYgYyA4NS44LDc5LjMgODcuOSwxMDguMyAxOTguMywxMjkuNCA0Ni41LDguMiA5OCwxMC40IDE0NC44LDExIDYuNywwIDEyLjMsLTUgMTMuMiwtMTEuNyBsIDAuMiwtMC4yIC0wLjIsLTIuOCBjIC0wLjMsLTMgLTEuNywtNS43IC0zLjgsLTcuOSB2IC0wLjEgTCAzNzEuNSwzNTYuOSA0NDksMjc3LjQgbCAyLjgsLTIuOCAwLjIsLTAuMiBjIDI2LjcsLTI3LjMgNDAuOSwtNjkuMyA0OS4xLC0xMTUuNyA4LjIsLTQ2LjYgMTAuMiwtOTggMTAuOCwtMTQ0LjggMCwtNi43IC01LC0xMi4zIC0xMS43LC0xMy4yIEwgNTAwLDAuNSA0OTcuMiwwLjYgYyAtMywwLjMgLTUuNywxLjcgLTcuOCwzLjggaCAtMC4xIEwgMzU2LjksMTQwLjIgMjc0LjUsNjAgQyAyNDcuMiwzMy4zIDIwNS4yLDE5LjEgMTU4LjYsMTAuOCAxMTAuNSw1LjYgNjIuMywwLjcgMTMuOCwwIFogbSAxMC4zLDE3LjggYyA0My41LDAuOCA4OS45LDIuNiAxMzEuNSw5LjkgNDQuOSw3LjkgODMuOCwyMiAxMDYuOSw0NC42IGggMC4xIGwgMi4zLDIuMyAxLjYsMS43IDAuMSwwLjIgMC4zLDAuMiAwLjMsMC4zIHYgMC4yIGwgMC4xLDAuMiBjIDIuOCwzLjggNy42LDExLjEgOSwxNC4yIDEsMi4yIDEuOSw0LjQgMi44LDYuOSAzLjgsMTEuMSA1LjgsMjQuOSA0LjQsNDIuNCB2IDAuMSBjIC0wLjMsMy45IC0wLjgsNy45IC0xLjQsMTIuMiAtMC4zLDIgLTAuOCw0LjIgLTEuMSw2LjYgLTAuOSw0LjcgLTEuOSw5LjIgLTMsMTMuOCAtMC42LDIuNCAtMS4yLDQuOSAtMS45LDcuNCB2IDAuMiBjIC0yLjgsOS45IC02LjQsMjAuOSAtMTAuOSwzMi40IC0xLjEsMi45IC0yLjIsNS43IC0zLjQsOC44IC0xLDIuMyAtMi4xLDQuOCAtMy4yLDcuMyBsIC01LjUsMS4xIGMgLTE4LjcsLTM1LjMgLTM5LjEsLTU5LjcgLTU3LjMsLTczLjcgLTkuMywtNyAtMTcuOCwtMTEuNSAtMjYuMiwtMTMuMyBoIC0wLjEgYyAtOC4yLC0xLjggLTE3LjEsLTAuNiAtMjIuOCw1LjMgbCAwLjgsMS42IDYuOCwtNS4xIHogTSA0OTQuMiwyNCBjIC0wLjgsNDMuNSAtMi41LDkwIC05LjksMTMxLjYgLTcuOSw0NC45IC0yMS45LDgzLjggLTQ0LjYsMTA3IGwgLTIuMywyLjIgLTIsMS44IC0wLjQsMC40IGggLTAuMiBjIC0zLjcsMi43IC0xMS4zLDcuNyAtMTQuMyw5LjEgLTIuMiwxIC00LjUsMi4yIC02LjksMyBoIC0wLjIgYyAtMTEsMy44IC0yNC44LDUuNiAtNDIuMyw0LjIgLTMuOCwtMC4zIC04LC0wLjcgLTEyLjIsLTEuMiBsIC02LjQsLTEuMSBoIC0wLjEgYyAtNC43LC0wLjkgLTkuMiwtMS45IC0xMy44LC0zIGggLTAuMiBjIC0yLjUsLTAuNyAtNC45LC0xLjQgLTcuMywtMi4xIC0xMSwtMyAtMjEuOCwtNi42IC0zMi41LC0xMC43IC0yLjksLTEuMiAtNS45LC0yLjQgLTksLTMuNyAtMi4yLC0wLjkgLTQuNSwtMS44IC02LjcsLTIuOCAwLjMsLTEuMyAtMS43LDIuMSAwLDAgMC4xLC0yLjEgLTAuMywtNC4yIC0xLjEsLTYuMSAzNC45LC0xOC42IDU5LjMsLTM4LjggNzMuMywtNTYuOSA3LjEsLTkuMyAxMS43LC0xOCAxMy41LC0yNi4zIDEuOSwtOC4yIDAuNiwtMTcuMiAtNS4zLC0yMyBsIDAuMiwwLjIgMi40LDcuNSB6IG0gLTE5Ny43LDgxLjUgNTQuMSw1Mi43IDAuMiwwLjMgMC4zLDAuMiBjIDAuOCwwLjggMS43LDIuNCAwLjcsNy4xIC0wLjUsMi4xIC0zLjEsNS43IC00LjQsOC4zIC0xLjcsMy42IC0yLjUsNi40IC01LjgsMTAuOCAtMTEuNywxNC45IC0zNC41LDMzLjQgLTY2LjksNTAuOCAxLC0yLjMgMS45LC00LjYgMi44LC02LjggMS4yLC0zLjEgMi40LC02LjMgMy42LC05LjMgNC43LC0xMi4yIDguNiwtMjMuNiAxMS41LC0zNC4yIDIuMSwtNy41IDMuOCwtMTUuMSA1LjIsLTIyLjcgdiAtMC4yIGMgMC4zLC0yLjMgMC45LC00LjYgMS4zLC02LjkgMC42LC00LjUgMS4xLC04LjkgMS40LC0xMy40IDEuMSwtMTQuNCAtMS41LC0yNS41IC00LC0zNi43IHogbSAtMTMwLjcsNTQuOCBjIDM0LDE1LjMgNTYuMiw1MS43IDY5LjksNzcuMiAtMi40LC0xLjEgLTQuNiwtMS45IC02LjksLTIuOSAtMy4yLC0xLjIgLTYuMywtMi40IC05LjMsLTMuNiAtMTEuMSwtNC40IC0yMi41LC04LjIgLTM0LC0xMS41IGggLTAuMSBjIC0yLjcsLTAuOCAtNS4zLC0xLjQgLTcuNywtMi4xIC01LjEsLTEuMyAtMTAuMiwtMi4zIC0xNC45LC0zLjIgLTIuMywtMC4zIC00LjgsLTAuNiAtNy4xLC0xLjEgdiAtMC4yIGMgLTQuNSwtMC42IC04LjksLTEuMSAtMTMuNCwtMS40IC0xNC41LC0xLjEgLTI1LjcsMS40IC0zNi45LDMuOSBsIDUyLjgsLTU0IDAuNiwtMC43IGMgMC44LC0wLjggMi40LC0xLjcgNy4xLC0wLjYgdiAwLjIgeiBtIC0yNC45LDY4LjMgYyAzLjgsMC4zIDcuOSwwLjggMTIuMiwxLjQgaCAwLjIgYyAyLDAuMyA0LjIsMC43IDYuNCwxLjEgNC40LDAuOCA4LjksMS44IDEzLjgsMyBsIDMuOCwwLjkgMy43LDAuOSBoIDAuMSBjIDEwLjEsMi44IDIwLjgsNi40IDMyLjUsMTAuOSAyLjksMS4xIDUuOSwyLjMgOC45LDMuNCAyLjYsMS4xIDUuMiwyLjMgNy43LDMuMyBsIDAuMyw1LjYgYyAtMzUsMTguNiAtNTkuNSwzOC44IC03My40LDU3IC03LjEsOS4zIC0xMS43LDE3LjggLTEzLjUsMjYuMiB2IDAuMiBjIC0xLjksOC4yIC0wLjYsMTcuMSA1LjMsMjIuOCBoIC0wLjIgbCAtNCwtNy4yIEwgMTgsNDg3LjcgYyAwLjgsLTQzLjQgMi40LC04OS43IDkuNywtMTMxLjMgNy45LC00NC45IDIyLC04My44IDQ0LjYsLTEwNi45IHYgLTAuMSBsIDEuNywtMS42IDAuNywtMC42IDEuOSwtMS43IGggMC4yIGwgMC4yLC0wLjMgYyAzLjcsLTIuNyAxMS40LC03LjggMTQuNSwtOS4zIDIuMywtMSA0LjcsLTIgNy4xLC0yLjggMTEuMSwtMy44IDI0LjksLTUuOCA0Mi40LC00LjQgeiBtIDExMCw0LjIgYyAtOC45LDIuOCAtMTQuOSw4LjkgLTE3LjgsMTcuOCBsIDkuNCwtMTAuNCB6IG0gMTEuNiwwLjYgMy44LDYuOSAzLjIsMiA4LjYsNi44IGMgLTMuMSwtNy41IC03LjksLTEyLjkgLTE1LjUsLTE1LjYgeiBtIC02LjEsMTEuMSBjIDYuNiwwIDExLjcsNS4yIDExLjcsMTEuOCAwLjEsNi42IC01LjIsMTEuOSAtMTEuNywxMS44IC02LjYsMC4xIC0xMS45LC01LjIgLTExLjgsLTExLjggMCwtNi42IDUuMiwtMTEuOCAxMS44LC0xMS44IHogTSAyMzQsMjYyLjkgYyAzLDcuOCA4LjIsMTMgMTUuOSwxNS45IGwgLTUuMSwtNS45IC00LjQsLTUgeiBtIDQ0LDAuOCAtNi4xLDIuNSAtMS4yLDMuOCAtNi4xLDYuOSBjIDYuMiwtMyAxMC42LC02LjkgMTMuNCwtMTMuMiB6IG0gLTEuNiwxMC45IGMgMi4yLDAuOSA0LjUsMi4xIDYuNywzIDMuMiwxLjIgNi4zLDIuNCA5LjMsMy42IDEyLDQuNiAyMy40LDguNCAzNCwxMS4zIDIuOCwwLjggNS40LDEuNCA3LjgsMi4xIDUuMiwxLjIgMTAuMiwyLjQgMTUsMy4zIDIuMiwwLjMgNC43LDAuNyA3LjEsMS4xIDQuNiwwLjYgOS4xLDEuMSAxMy40LDEuNiAxNC41LDEuMSAyNS42LC0xLjUgMzYuOCwtNCBsIC01Mi43LDU0LjEgLTAuMywwLjIgLTAuMywwLjMgYyAtMC44LDAuOCAtMi40LDEuNiAtNi45LDAuNyBoIC0wLjEgYyAtNC42LC0xLjEgLTExLjMsLTQuMyAtMTkuMSwtMTAuNCAtMTQuOSwtMTEuNyAtMzMuNCwtMzQuNSAtNTAuNywtNjYuOSB6IG0gLTM5LjEsMS45IC0yLjgsNi43IGMgLTEuMiwzLjEgLTIuNCw2LjMgLTMuNyw5LjMgLTQuMywxMS4yIC04LjEsMjIuNSAtMTEuMywzNCAtMC44LDIuOCAtMS40LDUuNCAtMiw3LjkgLTEuMiw1LjEgLTIuNCwxMC4yIC0zLjMsMTQuOSAtMC40LDIuNCAtMC44LDQuOCAtMS4xLDcuMiAtMC43LDQuNCAtMS4xLDguOCAtMS42LDEzLjMgLTEuMSwxNC41IDEuNSwyNS43IDMuOSwzNi44IGwgLTU0LC01Mi43IC0wLjMsLTAuNSAtMC4zLC0wLjEgdiAtMC4yIGMgLTAuOCwtMC44IC0xLjYsLTIuMiAtMC42LC02LjggdiAtMC4xIGMgMS4xLC00LjYgNC40LC0xMS4zIDEwLjQsLTE5LjEgMTEuNiwtMTQuOSAzNC40LC0zMy40IDY2LjcsLTUwLjYgeiBtIDIyLjIsNS41IGMgMTguNSwzNC43IDM4LjcsNTkuMSA1Ni44LDczLjEgOS4zLDcuMSAxNy44LDExLjYgMjYuMiwxMy41IGggMC4yIGMgOC4yLDEuOCAxNywwLjYgMjIuOCwtNS4zIGwgLTAuOCwtMS41IC02LjUsNS44IDEyOS45LDEyNi43IGMgLTQzLjUsLTAuOCAtOTAuMSwtMi42IC0xMzEuNywtMTAgLTQ0LjksLTcuOSAtODMuOCwtMjEuOSAtMTA2LjksLTQ0LjUgaCAtMC4xIGwgLTEuMiwtMS4xIC0wLjQsLTAuNyAtMC43LC0wLjYgLTEuNywtMS45IHYgLTAuMiBsIC0wLjMsLTAuMyBjIC0zLjQsLTQuNiAtNi41LC05LjQgLTkuMywtMTQuNSAtMS4xLC0yLjIgLTIsLTQuNyAtMi44LC03LjEgLTMuOCwtMTEuMSAtNS44LC0yNC44IC00LjQsLTQyLjMgMC4zLC0zLjggMC44LC03LjkgMS40LC0xMi4yIHYgLTAuMiBjIDAuMywtMiAwLjgsLTQuMiAxLjEsLTYuNCAwLjgsLTQuNCAxLjgsLTguOSAzLC0xMy44IHYgLTAuMiBsIDEsLTMuNiAwLjksLTMuNiB2IC0wLjIgYyAyLjgsLTEwIDYuMywtMjAuOCAxMC45LC0zMi40IDEuMSwtMi45IDIuNCwtNS45IDMuNiwtOC45IDEsLTIuNSAyLjEsLTQuOSAzLjIsLTcuNCBsIDUuOSwtMC4zIHoiIGlkPSJwYXRoMTM5NCIvPiYjeGE7ICAgIDwvZz4mI3hhOyAgPC9nPiYjeGE7ICA8ZyBpbmtzY2FwZTpsYWJlbD0iTGF5ZXIgMiIgaWQ9ImxheWVyMiIgaW5rc2NhcGU6Z3JvdXBtb2RlPSJsYXllciIvPiYjeGE7PC9zdmc+;" vertex="1" parent="9NjgWLflUYVtjoxsmrfz-444">
          <mxGeometry y="-0.21000000000003638" width="32" height="28.41" as="geometry" />
        </mxCell>
        <mxCell id="9NjgWLflUYVtjoxsmrfz-441" value="Apache Airflow" style="text;html=1;resizable=0;autosize=1;align=left;verticalAlign=middle;points=[];fillColor=none;strokeColor=none;rounded=0;fontFamily=Roboto;fontColor=#000000;" vertex="1" parent="9NjgWLflUYVtjoxsmrfz-444">
          <mxGeometry x="45" width="100" height="20" as="geometry" />
        </mxCell>
      </root>
    </mxGraphModel>
  </diagram>
</mxfile>
